<svg width="56" height="56" viewBox="0 0 56 56" fill="none" xmlns="http://www.w3.org/2000/svg">
<mask id="mask0_271_7094" style="mask-type:alpha" maskUnits="userSpaceOnUse" x="1" y="1" width="54" height="54">
<path d="M29.5223 54.4776C44.1456 53.6369 55.3184 41.1008 54.4777 26.4776C53.6369 11.8544 41.1009 0.681559 26.4777 1.52233C11.8544 2.3631 0.681579 14.8991 1.52235 29.5223C2.36312 44.1455 14.8991 55.3184 29.5223 54.4776Z" fill="white"/>
</mask>
<g mask="url(#mask0_271_7094)">
<path d="M29.5226 54.4779C44.1458 53.6371 55.3187 41.1011 54.4779 26.4779C53.6371 11.8547 41.1011 0.681803 26.4779 1.52257C11.8547 2.36334 0.681823 14.8994 1.52259 29.5226C2.36336 44.1458 14.8994 55.3186 29.5226 54.4779Z" fill="white"/>
<path d="M27.9976 17.8L36.4976 22.6451V33.2701L27.9976 38.2001L19.4976 33.2701V22.6451L27.9976 17.8Z" fill="#3C3C3B"/>
<path d="M27.9976 -10.675L36.4976 -5.74503V4.795L27.9976 9.72502L19.4976 4.795V-5.74503L27.9976 -10.675Z" fill="#3C3C3B"/>
<path d="M-5.49292 8.61992L3.00711 3.7749L12.1871 9.04492V18.82L3.68711 23.75L-5.49292 18.4799V8.61992Z" fill="#3C3C3B"/>
<path d="M-5.49292 47.2951V37.4351L3.68711 32.165L12.1871 37.0951V46.8701L3.00711 52.2251L-5.49292 47.2951Z" fill="#3C3C3B"/>
<path d="M27.9976 66.5903L19.4976 61.6602V51.1202L27.9976 46.1902L36.4976 51.1202V61.6602L27.9976 66.5903Z" fill="#3C3C3B"/>
<path d="M61.403 8.61992L52.9029 3.7749L43.7229 9.04492V18.82L52.2229 23.75L61.403 18.4799V8.61992Z" fill="#3C3C3B"/>
<path d="M61.403 47.2951V37.4351L52.2229 32.165L43.7229 37.0951V46.8701L52.9029 52.2251L61.403 47.2951Z" fill="#3C3C3B"/>
</g>
</svg>
